<svg id="Layer_1" xmlns="http://www.w3.org/2000/svg" viewBox="0 0 221.1 34.4"><style>.st0{fill:#399582}.st1{fill:#989898}.st2{fill:#676767}</style><path class="st0" d="M136.4 24.4c-1.1 0-2.4-.5-3.1-1.4-.9-1.1-1.3-2.4-1.3-4.5 0-3.3 1.5-6.2 4.6-6.2 1 0 2.1.4 2.6.9l-1 1.5c-.5-.5-1.1-.7-1.7-.7-1.9 0-2.4 2.1-2.4 4.1 0 1.8.2 2.6.6 3.3.5.8 1.1 1.3 1.8 1.3s1.3-.2 1.9-.7l.9 1.4c-.6.7-1.6 1-2.9 1m9.4 0c-1.1 0-2.4-.5-3.1-1.4-.9-1.1-1.3-2.4-1.3-4.5 0-3.3 1.5-6.2 4.6-6.2 1 0 2.1.4 2.6.9l-1 1.5c-.5-.5-1.1-.7-1.7-.7-1.9 0-2.4 2.1-2.4 4.1 0 1.8.2 2.6.6 3.3.5.8 1.1 1.3 1.8 1.3s1.3-.2 1.9-.7l.9 1.4c-.6.7-1.6 1-2.9 1m13.8-.1l-.4-7.1c0-.7-.1-2.5-.1-2.5s-.3 1.6-.4 2.3l-1.7 7.2h-1.8l-1.5-6.9c-.2-1-.4-2.6-.4-2.6s0 1.9-.1 2.6l-.4 6.9h-2l.9-11.8h2.7l1.4 6.8c.2.7.4 2.3.4 2.3s.2-1.5.4-2.3l1.5-6.8h2.7l.9 11.8h-2.1zm9-13.7h1.1v16.2h-1.1z"/><path class="st1" d="M182.3 18.2c0-.6-.3-.8-.8-.8s-1 .3-1.6.9c-.6.6-1.1 1.3-1.4 2.2-.4.8-.6 1.6-.6 2.4 0 .5.2.8.5.8.4 0 .9-.3 1.4-.9.6-.6 1.1-1.4 1.7-2.4.5-1.2.8-1.9.8-2.2m3.6-6.1c0 .1 0 .2-.1.4l-3.5 9.6c-.2.5-.3.9-.3 1.1 0 .2.1.3.2.3.2 0 .5-.3 1.1-1 .2-.3.3-.4.3-.4.1 0 .1 0 .2.1s.1.1.1.2-.2.4-.6.8c-.4.5-.7.8-1.1 1.1-.4.3-.7.4-.9.4-.6 0-.9-.3-.9-1 0-.4.2-1 .5-1.7-.4.8-1 1.4-1.6 1.9-.6.5-1.2.8-1.6.8-.4 0-.7-.2-1-.5-.2-.3-.4-.7-.4-1.2 0-.8.3-1.7.8-2.6.6-1 1.3-1.8 2.1-2.5s1.6-1 2.2-1c.2 0 .4 0 .6.1.2.1.4.2.5.3l1-2.7c.1-.3.2-.6.2-.8 0-.2-.2-.4-.7-.4-.1 0-.2-.1-.2-.2s0-.2.1-.2c.4-.1.8-.2 1.3-.4s.9-.4 1.1-.5c.1-.1.2-.1.3-.1.3-.1.3 0 .3.1m3 6.2c0-.5-.2-.7-.6-.7-.4 0-.8.3-1.1.8-.4.6-.6 1.2-.8 2.1.5 0 .9-.1 1.3-.3.4-.2.7-.5.9-.9.2-.3.3-.6.3-1m1.2-.2c0 .8-.4 1.5-1.2 2.1-.8.6-1.7.9-2.7.9 0 .3-.1.6-.1.9 0 .5.1.9.2 1.1.1.2.4.3.7.3.7 0 1.4-.4 1.9-1.3h.1s.1 0 .1.1c.1.1.1.1.1.2s-.2.4-.5.9c-.3.4-.7.8-1.1 1-.4.2-.8.4-1.1.4-.6 0-1-.2-1.4-.6-.4-.4-.5-.9-.5-1.5 0-.8.2-1.7.6-2.6.4-.9 1-1.6 1.6-2.2.7-.6 1.3-.9 1.9-.9.4 0 .7.1 1 .3.3.2.4.5.4.9m5.5-.4c0 .5-.2.7-.6.7-.2 0-.4-.2-.8-.5-.3-.3-.6-.4-.7-.4-.1 0-.3 0-.3.1-.1.1-.1.2-.1.4 0 .3.2.9.6 1.8.4 1 .6 1.6.6 2 0 .7-.3 1.4-.8 1.9-.5.6-1.1.8-1.9.8-.4 0-.8-.1-1.1-.3-.3-.2-.5-.4-.5-.7 0-.2.1-.4.2-.5.1-.1.3-.2.5-.2s.4.1.6.4l.5.5c.1.1.3.1.5.1s.4-.1.5-.3c.1-.2.2-.5.2-.8 0-.3-.2-.7-.5-1.4-.5-.9-.7-1.7-.7-2.2 0-.6.2-1.1.7-1.7.5-.5 1-.8 1.6-.8.4 0 .7.1 1 .3.3.3.5.5.5.8m5.3-4.1c0 .3-.1.5-.3.7-.2.2-.4.3-.7.3-.3 0-.5-.1-.7-.3-.2-.2-.3-.4-.3-.7 0-.3.1-.5.3-.7.2-.2.4-.3.7-.3.3 0 .5.1.7.3.2.2.3.4.3.7m-1 3.9c0 .4-.1.8-.4 1.3l-1.9 3.8c-.2.4-.3.7-.3.8 0 .1 0 .2.1.2.2 0 .6-.3 1.2-1 .3-.3.4-.5.5-.5.1 0 .1 0 .2.1s.1.1.1.2-.2.4-.7.8c-.4.5-.9.8-1.2 1.1-.4.3-.7.4-1 .4-.5 0-.8-.2-.8-.7 0-.3.1-.7.4-1.2l1.9-3.7c.2-.4.3-.7.3-.9 0-.1-.1-.2-.2-.2-.2 0-.6.4-1.2 1.1-.2.3-.4.4-.4.4-.1 0-.1 0-.2-.1 0-.1-.1-.1-.1-.2s.2-.4.7-.8c.4-.5.8-.8 1.2-1.1.4-.3.7-.4 1-.4.5-.1.8.1.8.6m5.3.8c0-.6-.2-.9-.7-.9-.3 0-.6.2-.9.6-.3.4-.6.9-.8 1.5-.2.6-.3 1.2-.3 1.9 0 .3.1.5.2.7s.3.3.5.3c.5 0 1-.4 1.4-1.2.4-.9.6-1.9.6-2.9m.2 8.5c0-.4-.2-.7-.7-1-.4-.3-1.2-.6-2.4-1-.5.1-1 .4-1.4.8-.4.4-.7.8-.7 1.2 0 1.1.8 1.6 2.5 1.6.7 0 1.3-.2 1.9-.5.5-.2.8-.6.8-1.1m2.4-8.3h-1.1v.5c0 .9-.4 1.8-1.1 2.6-.8.8-1.6 1.2-2.6 1.2-.2 0-.3 0-.5.1-.1.1-.2.1-.2.2s.1.2.2.3c.2.1.5.2 1.1.4 1.2.4 1.9.8 2.3 1.1.4.3.6.7.6 1.1 0 .5-.2 1-.6 1.5-.4.5-.9.9-1.5 1.1s-1.3.4-2 .4c-1.1 0-1.9-.2-2.6-.6-.7-.4-1-.9-1-1.5 0-.4.2-.8.7-1.3.5-.4 1.1-.8 1.9-1.1-.6-.3-.9-.6-.9-.9 0-.2.1-.4.3-.5.2-.2.5-.4 1.1-.7-.7-.4-1-1-1-1.9 0-1 .4-1.8 1.1-2.6.7-.8 1.6-1.2 2.5-1.2.7 0 1.3.3 1.6.9l1.7-.1c.1 0 .1.1.1.2 0 .2 0 .3-.1.5.1.2 0 .3 0 .3m7.6-.6c0 .4-.1.9-.4 1.4l-1.3 3.2c-.2.5-.3.7-.3.8 0 .1.1.2.2.2.2 0 .6-.3 1.1-.9.2-.3.4-.4.4-.4.1 0 .1 0 .2.1s.1.1.1.2-.2.4-.6.8-.8.8-1.2 1c-.4.2-.7.4-1 .4-.2 0-.4-.1-.6-.2-.1-.1-.2-.3-.2-.5 0-.3.1-.8.4-1.4l1.4-3.3c.2-.4.2-.7.2-.9 0-.3-.1-.5-.4-.5-.3 0-.8.4-1.4 1.2s-1.3 1.9-2.1 3.3l-.6 1.6c0 .1-.1.1-.3.2-.2.1-.4.1-.5.1-.2 0-.3 0-.5-.1-.1 0-.2-.1-.2-.2l1.8-5.2c.1-.4.2-.7.2-.8 0-.1-.1-.2-.2-.2-.2 0-.5.3-1 .9-.2.3-.4.5-.4.5-.1 0-.1 0-.2-.1s-.1-.1-.1-.2.2-.3.6-.8c.4-.4.7-.8 1.1-1 .3-.2.7-.4.9-.4.6 0 .9.3.9.8 0 .3-.1.7-.3 1.2l-.5 1.4c.7-1.1 1.3-1.9 1.9-2.5.6-.6 1.2-.9 1.7-.9.3 0 .6.1.8.3.3.3.4.6.4.9"/><path class="st2" d="M64.8 24.1c.5 0 .8-.1.9-.2 0-.2-.4-.3-.8-.4-.5 0-.8.1-.9.2-.1.2.3.4.8.4m-29.7.2c.5 0 .9-.2.9-.4s-.4-.3-.9-.3-.9.2-.9.4c-.1.2.3.3.9.3m-1.7 3.1l-2.1 2.5c-.1.1-.4.3-.7.3-.2 0-.2.3 0 .3.3 0 .8-.2.9-.4l2-2.4c.1-.2 0-.4-.1-.3m.1-19.5L27.3 7l-5.2.2.7.1h4.5l5.8.8zm6.4 4.6l.2-.3-.9-.5zm.5 2.4l.3-.1-1.2-1zm-.8-4.2l1.2 1.1.2-.3-1.1-1-4.7-2.1.3.3zm-1.5.6l-2.8-1.8v.3l2.2 1.4-.6.2 1.5 1.6h.5l-1.5-1.5zm-6.5-2.5l2.6.7.1-.3-3-.7zm4.9 5.1h.6l-1.2-.9h.6l-1.4-1v.2l.7.6-.3.2zm-2.1-3.3l-3.1-1.1.1.2 2 .8-.4.2 1.3.5h.6l-1.2-.5zM29 8.2L26.1 8l.3.2 2.2.2-.3.4 1.6.3.2-.3-1.4-.1zm1.6 2.8l1.6.5.4-.1-2-.6zm42.1-3.7h4.6l.6-.1-5.2-.2-6.2.9.5.2zM60 12.2l.1.3.8-.8zm-.3 2.7l.9-1.1-1.3 1zm4.8-6.2l.3-.3-4.7 2.1-1.1 1 .2.3 1.2-1.1zm-2 2.5l2.2-1.4v-.3l-2.8 1.8.7.2-1.5 1.5h.5l1.5-1.6zm3.2-2l.1.3 2.7-.7.2-.3zM64.1 13l-1.1.9h.5l1-.9-.3-.2.7-.6V12l-1.3 1zm1.6-1.8l1.3-.5-.4-.2 2-.8.1-.2-3.1 1.1.7.1-1.2.5zm5.6-2.5l-1.3.1.2.3 1.5-.3-.2-.4 2.1-.2.3-.2-2.9.2zm-3.9 2.7l.4.1 1.6-.5v-.2zm12.9.7c-.8.1-1.4.4-1.7.7.6.5.5 1.3.2 1.6 1.9 1 4.5-1.1 5.6-.9l.6-.5c-1.4-.7-2.5-.9-3.5-.9l-.2.2.2.2c.7 0 1.3.2 1.5.2-1.6.2-.8.1-.6.2.2.1 1 .1 1 .2-.6 0-1.7-.1-2.2.2-.2.1 2 0 .7.2l-2 .2 1.8.1c-.2 0-2.4.1-2.5 0-.1-.1.3-.2.3-.3 0-.1-.4 0-.4-.2.2-.1 1.3-.4 2.1-.6h-1.3l.4-.6zm-.5 8.4l3.8.5c.1 0 .1.1.1.3 0 .3.2.2.2.1 0 0 .2-.3-.1-.5-.1-.1-.2-.1-.2-.1l-3.9-.5s-.1 0-.1.1c.1.1.2.1.2.1m3.4 1.9c0 .1 0 .2-.3.3-.2.1 0 .2.1.2 0 0 .3-.1.4-.4.2-.1-.1-.2-.2-.1M60.3 25h-8.8c-.1 0-.2.1-.2.2s.1.2.2.2h1.4l.2.8c0 .1.1.1.1.1.1 0 .1-.1.1-.2l-.1-.7h5.2l.2.8c0 .1.1.1.1.1.1 0 .1-.1.1-.2l-.2-.7h1.7c.1 0 .2-.1.2-.2s-.1-.2-.2-.2m-9.9 0H38.5c-.1 0-.2.1-.2.2s.1.2.2.2h2.8l-.2.6c0 .1 0 .2.1.2s.1 0 .1-.1l.2-.8h5.6v.8c0 .1.1.2.2.2s.2-.1.2-.2v-.8h3c.1 0 .2-.1.2-.2-.1 0-.2-.1-.3-.1m-39.7 0H10c-.1 0-.2.1-.2.2s.1.2.2.2h.7c.1 0 .2-.1.2-.2s-.1-.2-.2-.2m15.4 0H17c-.1 0-.2.1-.2.2s.1.2.2.2h1l-.6.6c-.1.1-.1.2 0 .2h.2l.8-.8h4.7l-.5.6c-.1.1 0 .2 0 .2h.1s.1 0 .1-.1l.6-.8h2.7c.1 0 .2-.1.2-.2 0 0-.1-.1-.2-.1m-10.3 0h-4.2c-.1 0-.2.1-.2.2s.1.2.2.2h.9l-.6.6c-.1.1-.1.2 0 .2h.2l.8-.8h2.8c.1 0 .2-.1.2-.2s0-.2-.1-.2m-6.5 0H6.5c-.1 0-.2.1-.2.2s.1.2.2.2h1l-.7.6c-.1.1-.1.2 0 .2H7l1-.8h1.3c.1 0 .2-.1.2-.2s-.1-.2-.2-.2m76.2.3h1.6l.9.9h.2c.1-.1.1-.2 0-.2l-.7-.7h4.8l1 .9h.1s.1 0 .1-.1c.1-.1 0-.2 0-.2l-.8-.7h.6c.1 0 .2-.1.2-.2s-.1-.2-.2-.2h-7.9c-.1 0-.2.1-.2.2.2.2.2.3.3.3m-6.7 0h2.7l.7.9.1.1h.1c.1-.1.1-.2 0-.2l-.6-.7h2.6c.1 0 .2-.1.2-.2s-.1-.2-.2-.2h-5.7c-.1 0-.2.1-.2.2.2 0 .2.1.3.1"/><path class="st2" d="M67.9 25.3h1.6l.4.8c0 .1.1.1.1.1h.1c.1 0 .1-.1.1-.2l-.3-.7h5.3l.5.9c0 .1.1.1.1.1h.1c.1 0 .1-.1.1-.2l-.4-.8H77c.1 0 .2-.1.2-.2s-.1-.2-.2-.2h-9.4l-.3-.3h26.6l.1.4 1.8 1.6v.5H69.1c-.1-.6-.5-1-.5-1l-.7-.8zm.4 3.1l-.6-.8h.9c-.1-.1 0 .4-.3.8m-2.2-1.1h-.9c.1-.4.4-.6.4-.6h2.7c.2.2.2.6.2.6h-1.1c-.5-.7-1.2-.3-1.3 0m-.6 1.1c-.3-.4-.3-.8-.3-.8h.9s0 .1.1.3l.3.5h-1zm-.5-3.2c.8.1 1.7-.3 1.7-.3l1.1 1h-2.1l-.7-.7zm-.2 1.5l-1.5-1.8c.3.1.8.2.8.2l1 1.1c-.2.1-.3.5-.3.5m-.2 1l-9-10.8c-.1-.7.2-.9.2-.9l6.4 7.2c-.5.7.2 1.2.2 1.2l2.2 2.7c-.1.3 0 .6 0 .6m-28.3-.6l2-2.4h23.1l2 2.4H36.3zm-1.1.6c.1-.3 0-.7 0-.7s1.9-2.3 2-2.4c.1 0 .2-.2.2-.2.5-.7 0-1.2 0-1.2l10.2-11.3v1L35.2 27.7zm-.4-1.4l.9-1.1c.4 0 .7-.2.7-.2L35 26.7c0-.1-.2-.4-.2-.4m-.6-.3h-2l1-.9s.8.4 1.7.3l-.7.6zm.4 1.6c0 .4-.3.7-.3.7h-.8l.3-.3c.2-.3.2-.4.2-.4h.7zm-2.8 2.5c-.5.6-1.4.6-1.4.6l-.4.3.2-.5s-.1-.6.5-1.2l1.8-2.2c.2-.3 1.1-.4 1.2.3 0 .2-.1.4-.1.4l-1.8 2.3zm.2-2.6l-.6.7c-.3-.3-.2-.7-.2-.7h.8zm-.7-.3s.1-.5.2-.6h2.7c.1 0 .3.6.3.6h-.8s-.1-.4-.6-.4c-.6-.1-.9.5-.9.5h-.9zm-.6-.1H4.5l1.7-1.9.1-.5h26.2l-.3.3h-4.7c-.1 0-.2.1-.2.2s.1.2.2.2h.9l-.4.7c0 .1 0 .2.1.2h.1c.1 0 .1 0 .1-.1l.5-.9H32l-.8.7c-.3.5-.4.8-.5 1.1M9.6 21.4h10.5c-3.1.6-5.3 1-6 1.2-1.4.3-1.8 1.1-1.2 1.5H6.8l2.8-2.7zm28.1-2.1l-.5.6c-5.7.9-18.1 2.8-22.8 3.7-.5.1-.6-.3-.2-.4 5.9-1.1 18.2-3 23.5-3.9m-5.4 4.8H17c6.8-.7 12.9-1.4 18.2-2.1l-.6.7c-1.9.3-2.3.9-2.3 1.4m2.7-.9c1.1-.1 2 .2 2 .6 0 .4-.8.8-1.9.9-1.1.1-2-.2-2-.6-.1-.4.8-.8 1.9-.9m20.3-6.7l-3.1-3.6v-1l3.4 3.8c-.3.2-.3.8-.3.8m-9.3-1l2-2.4c2.3.6 3.9 0 3.9 0l2.1 2.7c-.5.1-1.3.2-2.4.4l-5.6-.7zm9.3 1.9l.2.2-10.2-1.2.2-.2 9.8 1.2zm-11.2.4l.2-.2L56.6 19l.2.2-12.7-1.4zm5.9 2l5.3.6H46c1.3-.1 2.7-.4 4-.6m-6.7-.9l.4-.5 1.7-.3 1.6.2-3.7.6zm15.4 2.5l2.2 2.6H38.8l2.5-2.9h.2l-.3.3h17.5zM40 17.7l7.4-7.3.3.1s0 .8 2.2.8 2.1-.8 2.1-.8l.4-.1 6.6 6.1-2.9-.8-4.1-4.6s-.9.4-2.1.4c-1.1 0-1.8-.3-2.1-.4L37.1 23s-.5-.4-1.6-.4l4.5-4.9zm-14.3-1.9c-.1 0-.2.1-.3.2-.1.2-.2.5-.4.6-1.8-.6-4.7-1.5-4.7-1.5l.5-.1-.3-.2s2.9.6 4.2 1c-1.5-.6-3.9-1.3-3.9-1.3l-.4-.5c.5 0 5-.4 5-.4l.1.3s.1.2.3.2L41 15.7l-.2.2L26 14.2c-.4-.1-.4.2-.4.2v.7c0 .3.3.3.3.3L39.8 17l-.2.2-13.9-1.4zm7.2-2.7l.9-.6-4.8-1.3 1.3-.9-5.3-.7 1-.8-5.1-.4.9-.6-5-.6 5-.8 6.2-.2 7.5 1.3 5.4 2.6 1.3 1.2-.6.7-1.3.7v.6l.8.8.4.7-2.8-.3-.9-.5.6.5-2.1-.2-3.4-1.2zm17.3-5.4c.1.1.1.1.1.3l.1 1.7h-.1l-.1-2zm-.8 2V8c0-.2.2-.4.5-.4h.1v2.1h-.6m-.6.3c.2 0 .6-.1 1.1-.1.6 0 .9.1 1.1.1l-1.1.3 1.5.5c-.3.2-.9.3-1.5.3-.5 0-1.2-.1-1.5-.2l1.5-.5c0-.1-1.1-.4-1.1-.4m-3.6-1.6c0-1 2-1.9 4.5-1.9s4.5.9 4.5 1.9c0 .7-1 1.3-2.5 1.6-.4-.2-.7-.2-1-.3l-.1-1.4c.8.1 1.7.4 1.7 1 .7-.2 1.1-.6 1.1-.9 0-.7-1.6-1.4-3.6-1.4s-3.6.7-3.6 1.4c0 .4.4.7 1.1.9.1-.6 1-.9 1.9-1l-.1 1.4c-.4 0-.8.1-1.1.3-1.6-.2-2.8-.9-2.8-1.6m4-4.4c.1-.3.5-.4.8-.4v2.5c-.7 0-1.1.1-1.1.1l.3-2.2zm1.3 0l.3 2.2h-.3l-.2-2.5c.1.1.2.2.2.3m7.8 8.1l-.6-.7 1.3-1.2 5.4-2.6L72 6.3l6.2.2 5 .8-5 .6.9.6-5.1.3 1 .8-5.2.7 1.3.9-4.8 1.3.9.6-2.7 1.2c-.4 0-.7.1-.7.1l.1.2c-.1-.1-.3 0-.3 0h-.2c-.6.1-1.2.1-1.9.2l.7-.6-1 .6c-.8.1-1.7.2-2.6.3l.1-.7 1-.9v-.6l-1.4-.8zm8.3 2.4s.3.3.4.6c-.3 0-.8.1-.8.1s-.2-.5-.6-.7c0 0 .3-.2 1 0m1.1-.2L78.3 13c.1.1.3.4.3.4l-11.1 1.8c-.2-.5-.5-.7-.5-.7.2-.2.7-.2.7-.2m10.9-.8v.3l-9.8 1.8s-.8.1-1.1.1c0 0 0-.2-.1-.4l11-1.8zm-11.5 2.3c-.1.1-.8.3-.8.3v-.4l.8-.2v.3m-1.2.3c-.2.2-.4.2-.4.2l-.4-.4.8-.2v.4m-1.3-1.3l.4-.2h.1s.3.1.6.6v.1s-.4-.1-.9.1c.1.1 0-.3-.2-.6m-.1.8s-1.8.3-4.6.7l-.5-.5c3.3-.5 5-.7 5-.7 0 .1.1.3.1.5m14.6 4.5c.1 0 .1-.1.1-.1v-.1l4.6.5c.3 0 .4.2.4.2.3.4.3 1.1 0 1.7-.3.7-.9.8-.9.8l-4-.4.3-.6 3.1.4c.2 0 .4-.2.2-.3l-3.3-.4s-.2 0-.2.2l-.4.7h-.3s.2-.3.3-.7c0 0 .1-.2-.2-.2l-16-1.8-.2-.3 16.2 1.8c.3 0 .3-.2.3-.2l.1-.8c0-.2-.2-.2-.2-.2l-17.5-2-.2-.3 17.8 2.1zm-16.4 2.8l-6.1-6.7 2.9.8 4.8 5.6H64c-1-.1-1.3.3-1.3.3m2.1.2c1.1.1 1.9.4 1.9.8s-.9.6-1.9.6c-1.1-.1-1.9-.4-1.9-.8s.9-.6 1.9-.6m19.8-.4c.3-.5.4-.9.4-1.3h5.6l3 2.6H67.3c.2-1.2-2.1-1.6-2.1-1.6l-.9-1.1 18.9 2.1c0 .1.8.4 1.4-.7m-15.5 5.6h28.2l-.3-1.7-1.9-2-.2-.7-3.9-3.4h-6.3c0-.1-.3-.5-1-.6l-20.1-2.3.6-.1s1.2-.1 2-.3c.7-.1 1.1-.4 1.1-.4.4.1.8 0 .8 0s10.2-2.2 10.4-2.2c.2-.1.4-.3.4-.3.4-.7 0-1.2-.1-1.4-.2-.2-.4-.2-.4-.2s-10 1.1-10.6 1.2c-.6.1-.9.3-.9.3-.2-.1-.4-.1-.6-.1l2.3-1.1-.7-.4 4.5-1.3-1-.8 5.1-.6-1-.8 5.7-.3-1.2-.6 3.8-.4 2.6.2 3.1-.4-10.4-1.8-.7.5.1-.5-6.5-.2-7.2 1.1-.4.5-.6-.3-5.5 2.8-1.5 1.6.7 1.5 1 .5-.8.8-.1.2-3.3-3.1c.1-.1.2-.5.2-.5V8.3c-.1-1.7-3.2-2.1-3.2-2.1L51 3.8c-.1-.7-1.1-.7-1.1-.7-1.2 0-1.2.7-1.2.7l-.3 2.5c-3.6.5-3.4 2.1-3.4 2.1v2.1c0 .5.5.8.5.8l-3.1 3-.1-.3-.8-.8 1-.5.7-1.5-1.5-1.6-5.5-2.8-.6.3-.4-.5L28 5.5l-6.5.2.1.5-.7-.5-10.3 1.9 3.1.4 2.5-.2 3.8.4-1 .7 5.7.3-1 .8 5.1.6-1 .8 4.5 1.3-.7.4 2.3 1.1-8.6-1s-4.3.4-7.5.6l-.4.6.6.4s4.5 1.3 6.8 2.4l12.8 1.3c-4.4.7-8.5 1.4-12.1 2.1H9.2L5.6 24l-.4.9-2.1 2.4-.3 1.2h27.9c.1.3.3.4.3.4l-.6.7c-.5.7-.4 1.1-.4 1.1l-.3.8.8-.4c1 .1 1.6-.7 1.6-.7L33 29h1.7l.6-.7h29.2l.6.7H67l2.1 3.1.2-.8-2.6-3.4s-.2-.3-.1-.4c.2-.1.3 0 .3 0l2.6 3.3.3-.9-1-1.1c.1-.2.2-.4.3-.5"/></svg>