<?xml version="1.0" encoding="utf-8"?>
<!-- Generator: Adobe Illustrator 20.0.0, SVG Export Plug-In . SVG Version: 6.00 Build 0)  -->
<svg version="1.1" id="Layer_1" xmlns="http://www.w3.org/2000/svg" xmlns:xlink="http://www.w3.org/1999/xlink" x="0px" y="0px"
	 viewBox="0 0 221.1 34.4" style="enable-background:new 0 0 221.1 34.4;" xml:space="preserve">
<style type="text/css">
	.st0{fill:#399582;}
	.st1{fill:#989898;}
	.st2{fill:#676767;}
</style>
<g>
	<path class="st0" d="M136.4,24.4c-1.1,0-2.4-0.5-3.1-1.4c-0.9-1.1-1.3-2.4-1.3-4.5c0-3.3,1.5-6.2,4.6-6.2c1,0,2.1,0.4,2.6,0.9
		l-1,1.5c-0.5-0.5-1.1-0.7-1.7-0.7c-1.9,0-2.4,2.1-2.4,4.1c0,1.8,0.2,2.6,0.6,3.3c0.5,0.8,1.1,1.3,1.8,1.3c0.7,0,1.3-0.2,1.9-0.7
		l0.9,1.4C138.7,24.1,137.7,24.4,136.4,24.4"/>
	<path class="st0" d="M145.8,24.4c-1.1,0-2.4-0.5-3.1-1.4c-0.9-1.1-1.3-2.4-1.3-4.5c0-3.3,1.5-6.2,4.6-6.2c1,0,2.1,0.4,2.6,0.9
		l-1,1.5c-0.5-0.5-1.1-0.7-1.7-0.7c-1.9,0-2.4,2.1-2.4,4.1c0,1.8,0.2,2.6,0.6,3.3c0.5,0.8,1.1,1.3,1.8,1.3c0.7,0,1.3-0.2,1.9-0.7
		l0.9,1.4C148.1,24.1,147.1,24.4,145.8,24.4"/>
	<path class="st0" d="M159.6,24.3l-0.4-7.1c0-0.7-0.1-2.5-0.1-2.5s-0.3,1.6-0.4,2.3l-1.7,7.2h-1.8l-1.5-6.9c-0.2-1-0.4-2.6-0.4-2.6
		s0,1.9-0.1,2.6l-0.4,6.9h-2l0.9-11.8h2.7l1.4,6.8c0.2,0.7,0.4,2.3,0.4,2.3s0.2-1.5,0.4-2.3l1.5-6.8h2.7l0.9,11.8H159.6z"/>
</g>
<rect x="168.6" y="10.6" class="st0" width="1.1" height="16.2"/>
<g>
	<path class="st1" d="M182.3,18.2c0-0.6-0.3-0.8-0.8-0.8c-0.5,0-1,0.3-1.6,0.9c-0.6,0.6-1.1,1.3-1.4,2.2c-0.4,0.8-0.6,1.6-0.6,2.4
		c0,0.5,0.2,0.8,0.5,0.8c0.4,0,0.9-0.3,1.4-0.9c0.6-0.6,1.1-1.4,1.7-2.4C182,19.2,182.3,18.5,182.3,18.2 M185.9,12.1
		c0,0.1,0,0.2-0.1,0.4l-3.5,9.6c-0.2,0.5-0.3,0.9-0.3,1.1c0,0.2,0.1,0.3,0.2,0.3c0.2,0,0.5-0.3,1.1-1c0.2-0.3,0.3-0.4,0.3-0.4
		c0.1,0,0.1,0,0.2,0.1c0.1,0.1,0.1,0.1,0.1,0.2c0,0.1-0.2,0.4-0.6,0.8c-0.4,0.5-0.7,0.8-1.1,1.1c-0.4,0.3-0.7,0.4-0.9,0.4
		c-0.6,0-0.9-0.3-0.9-1c0-0.4,0.2-1,0.5-1.7c-0.4,0.8-1,1.4-1.6,1.9c-0.6,0.5-1.2,0.8-1.6,0.8c-0.4,0-0.7-0.2-1-0.5
		c-0.2-0.3-0.4-0.7-0.4-1.2c0-0.8,0.3-1.7,0.8-2.6c0.6-1,1.3-1.8,2.1-2.5c0.8-0.7,1.6-1,2.2-1c0.2,0,0.4,0,0.6,0.1
		c0.2,0.1,0.4,0.2,0.5,0.3l1-2.7c0.1-0.3,0.2-0.6,0.2-0.8c0-0.2-0.2-0.4-0.7-0.4c-0.1,0-0.2-0.1-0.2-0.2c0-0.1,0-0.2,0.1-0.2
		c0.4-0.1,0.8-0.2,1.3-0.4c0.5-0.2,0.9-0.4,1.1-0.5c0.1-0.1,0.2-0.1,0.3-0.1C185.9,11.9,185.9,12,185.9,12.1"/>
	<path class="st1" d="M188.9,18.3c0-0.5-0.2-0.7-0.6-0.7c-0.4,0-0.8,0.3-1.1,0.8c-0.4,0.6-0.6,1.2-0.8,2.1c0.5,0,0.9-0.1,1.3-0.3
		c0.4-0.2,0.7-0.5,0.9-0.9C188.8,19,188.9,18.7,188.9,18.3 M190.1,18.1c0,0.8-0.4,1.5-1.2,2.1c-0.8,0.6-1.7,0.9-2.7,0.9
		c0,0.3-0.1,0.6-0.1,0.9c0,0.5,0.1,0.9,0.2,1.1c0.1,0.2,0.4,0.3,0.7,0.3c0.7,0,1.4-0.4,1.9-1.3l0.1,0c0,0,0.1,0,0.1,0.1
		c0.1,0.1,0.1,0.1,0.1,0.2c0,0.1-0.2,0.4-0.5,0.9c-0.3,0.4-0.7,0.8-1.1,1c-0.4,0.2-0.8,0.4-1.1,0.4c-0.6,0-1-0.2-1.4-0.6
		c-0.4-0.4-0.5-0.9-0.5-1.5c0-0.8,0.2-1.7,0.6-2.6c0.4-0.9,1-1.6,1.6-2.2c0.7-0.6,1.3-0.9,1.9-0.9c0.4,0,0.7,0.1,1,0.3
		C190,17.4,190.1,17.7,190.1,18.1"/>
	<path class="st1" d="M195.6,17.7c0,0.5-0.2,0.7-0.6,0.7c-0.2,0-0.4-0.2-0.8-0.5c-0.3-0.3-0.6-0.4-0.7-0.4c-0.1,0-0.3,0-0.3,0.1
		c-0.1,0.1-0.1,0.2-0.1,0.4c0,0.3,0.2,0.9,0.6,1.8c0.4,1,0.6,1.6,0.6,2c0,0.7-0.3,1.4-0.8,1.9c-0.5,0.6-1.1,0.8-1.9,0.8
		c-0.4,0-0.8-0.1-1.1-0.3c-0.3-0.2-0.5-0.4-0.5-0.7c0-0.2,0.1-0.4,0.2-0.5c0.1-0.1,0.3-0.2,0.5-0.2c0.2,0,0.4,0.1,0.6,0.4
		c0.2,0.2,0.4,0.4,0.5,0.5c0.1,0.1,0.3,0.1,0.5,0.1c0.2,0,0.4-0.1,0.5-0.3c0.1-0.2,0.2-0.5,0.2-0.8c0-0.3-0.2-0.7-0.5-1.4
		c-0.5-0.9-0.7-1.7-0.7-2.2c0-0.6,0.2-1.1,0.7-1.7c0.5-0.5,1-0.8,1.6-0.8c0.4,0,0.7,0.1,1,0.3C195.4,17.2,195.6,17.4,195.6,17.7"/>
	<path class="st1" d="M200.9,13.6c0,0.3-0.1,0.5-0.3,0.7c-0.2,0.2-0.4,0.3-0.7,0.3c-0.3,0-0.5-0.1-0.7-0.3c-0.2-0.2-0.3-0.4-0.3-0.7
		c0-0.3,0.1-0.5,0.3-0.7c0.2-0.2,0.4-0.3,0.7-0.3c0.3,0,0.5,0.1,0.7,0.3C200.8,13.1,200.9,13.3,200.9,13.6 M199.9,17.5
		c0,0.4-0.1,0.8-0.4,1.3l-1.9,3.8c-0.2,0.4-0.3,0.7-0.3,0.8c0,0.1,0,0.2,0.1,0.2c0.2,0,0.6-0.3,1.2-1c0.3-0.3,0.4-0.5,0.5-0.5
		c0.1,0,0.1,0,0.2,0.1c0.1,0.1,0.1,0.1,0.1,0.2c0,0.1-0.2,0.4-0.7,0.8c-0.4,0.5-0.9,0.8-1.2,1.1c-0.4,0.3-0.7,0.4-1,0.4
		c-0.5,0-0.8-0.2-0.8-0.7c0-0.3,0.1-0.7,0.4-1.2l1.9-3.7c0.2-0.4,0.3-0.7,0.3-0.9c0-0.1-0.1-0.2-0.2-0.2c-0.2,0-0.6,0.4-1.2,1.1
		c-0.2,0.3-0.4,0.4-0.4,0.4c-0.1,0-0.1,0-0.2-0.1c0-0.1-0.1-0.1-0.1-0.2c0-0.1,0.2-0.4,0.7-0.8c0.4-0.5,0.8-0.8,1.2-1.1
		c0.4-0.3,0.7-0.4,1-0.4C199.6,16.8,199.9,17,199.9,17.5"/>
	<path class="st1" d="M205.2,18.3c0-0.6-0.2-0.9-0.7-0.9c-0.3,0-0.6,0.2-0.9,0.6c-0.3,0.4-0.6,0.9-0.8,1.5c-0.2,0.6-0.3,1.2-0.3,1.9
		c0,0.3,0.1,0.5,0.2,0.7s0.3,0.3,0.5,0.3c0.5,0,1-0.4,1.4-1.2C205,20.3,205.2,19.3,205.2,18.3 M205.4,26.8c0-0.4-0.2-0.7-0.7-1
		c-0.4-0.3-1.2-0.6-2.4-1c-0.5,0.1-1,0.4-1.4,0.8c-0.4,0.4-0.7,0.8-0.7,1.2c0,1.1,0.8,1.6,2.5,1.6c0.7,0,1.3-0.2,1.9-0.5
		C205.1,27.7,205.4,27.3,205.4,26.8 M207.8,18.5l-1.1,0c0,0.2,0,0.4,0,0.5c0,0.9-0.4,1.8-1.1,2.6c-0.8,0.8-1.6,1.2-2.6,1.2
		c-0.2,0-0.3,0-0.5,0.1c-0.1,0.1-0.2,0.1-0.2,0.2c0,0.1,0.1,0.2,0.2,0.3c0.2,0.1,0.5,0.2,1.1,0.4c1.2,0.4,1.9,0.8,2.3,1.1
		c0.4,0.3,0.6,0.7,0.6,1.1c0,0.5-0.2,1-0.6,1.5c-0.4,0.5-0.9,0.9-1.5,1.1s-1.3,0.4-2,0.4c-1.1,0-1.9-0.2-2.6-0.6
		c-0.7-0.4-1-0.9-1-1.5c0-0.4,0.2-0.8,0.7-1.3c0.5-0.4,1.1-0.8,1.9-1.1c-0.6-0.3-0.9-0.6-0.9-0.9c0-0.2,0.1-0.4,0.3-0.5
		c0.2-0.2,0.5-0.4,1.1-0.7c-0.7-0.4-1-1-1-1.9c0-1,0.4-1.8,1.1-2.6c0.7-0.8,1.6-1.2,2.5-1.2c0.7,0,1.3,0.3,1.6,0.9l1.7-0.1
		c0.1,0,0.1,0.1,0.1,0.2c0,0.2,0,0.3-0.1,0.5C207.9,18.4,207.8,18.5,207.8,18.5"/>
	<path class="st1" d="M215.4,17.9c0,0.4-0.1,0.9-0.4,1.4l-1.3,3.2c-0.2,0.5-0.3,0.7-0.3,0.8c0,0.1,0.1,0.2,0.2,0.2
		c0.2,0,0.6-0.3,1.1-0.9c0.2-0.3,0.4-0.4,0.4-0.4c0.1,0,0.1,0,0.2,0.1c0.1,0.1,0.1,0.1,0.1,0.2c0,0.1-0.2,0.4-0.6,0.8
		s-0.8,0.8-1.2,1c-0.4,0.2-0.7,0.4-1,0.4c-0.2,0-0.4-0.1-0.6-0.2c-0.1-0.1-0.2-0.3-0.2-0.5c0-0.3,0.1-0.8,0.4-1.4l1.4-3.3
		c0.2-0.4,0.2-0.7,0.2-0.9c0-0.3-0.1-0.5-0.4-0.5c-0.3,0-0.8,0.4-1.4,1.2s-1.3,1.9-2.1,3.3l-0.6,1.6c0,0.1-0.1,0.1-0.3,0.2
		c-0.2,0.1-0.4,0.1-0.5,0.1c-0.2,0-0.3,0-0.5-0.1c-0.1,0-0.2-0.1-0.2-0.2l0,0l1.8-5.2c0.1-0.4,0.2-0.7,0.2-0.8
		c0-0.1-0.1-0.2-0.2-0.2c-0.2,0-0.5,0.3-1,0.9c-0.2,0.3-0.4,0.5-0.4,0.5c-0.1,0-0.1,0-0.2-0.1c-0.1-0.1-0.1-0.1-0.1-0.2
		c0-0.1,0.2-0.3,0.6-0.8c0.4-0.4,0.7-0.8,1.1-1c0.3-0.2,0.7-0.4,0.9-0.4c0.6,0,0.9,0.3,0.9,0.8c0,0.3-0.1,0.7-0.3,1.2l-0.5,1.4
		c0.7-1.1,1.3-1.9,1.9-2.5c0.6-0.6,1.2-0.9,1.7-0.9c0.3,0,0.6,0.1,0.8,0.3C215.3,17.3,215.4,17.6,215.4,17.9"/>
	<path class="st2" d="M64.8,24.1c0.5,0,0.8-0.1,0.9-0.2c0-0.2-0.4-0.3-0.8-0.4c-0.5,0-0.8,0.1-0.9,0.2
		C63.9,23.9,64.3,24.1,64.8,24.1"/>
	<path class="st2" d="M35.1,24.3c0.5,0,0.9-0.2,0.9-0.4c0-0.2-0.4-0.3-0.9-0.3c-0.5,0-0.9,0.2-0.9,0.4
		C34.1,24.2,34.5,24.3,35.1,24.3"/>
	<path class="st2" d="M33.4,27.4l-2.1,2.5c-0.1,0.1-0.4,0.3-0.7,0.3c-0.2,0-0.2,0.3,0,0.3c0.3,0,0.8-0.2,0.9-0.4l2-2.4
		C33.6,27.5,33.5,27.3,33.4,27.4"/>
</g>
<polygon class="st2" points="33.5,7.9 27.3,7 22.1,7.2 22.8,7.3 27.3,7.3 33.1,8.1 "/>
<polygon class="st2" points="39.9,12.5 40.1,12.2 39.2,11.7 "/>
<polygon class="st2" points="40.4,14.9 40.7,14.8 39.5,13.8 "/>
<polygon class="st2" points="39.6,10.7 40.8,11.8 41,11.5 39.9,10.5 35.2,8.4 35.5,8.7 "/>
<polygon class="st2" points="38.1,11.3 35.3,9.5 35.3,9.8 37.5,11.2 36.9,11.4 38.4,13 38.9,13 37.4,11.5 "/>
<polygon class="st2" points="31.6,8.8 34.2,9.5 34.3,9.2 31.3,8.5 "/>
<polygon class="st2" points="36.5,13.9 37.1,13.9 35.9,13 36.5,13 35.1,12 35.1,12.2 35.8,12.8 35.5,13 "/>
<polygon class="st2" points="34.4,10.6 31.3,9.5 31.4,9.7 33.4,10.5 33,10.7 34.3,11.2 34.9,11.2 33.7,10.7 "/>
<polygon class="st2" points="29,8.2 26.1,8 26.4,8.2 28.6,8.4 28.3,8.8 29.9,9.1 30.1,8.8 28.7,8.7 "/>
<polygon class="st2" points="30.6,11 32.2,11.5 32.6,11.4 30.6,10.8 "/>
<polygon class="st2" points="72.7,7.3 77.3,7.3 77.9,7.2 72.7,7 66.5,7.9 67,8.1 "/>
<polygon class="st2" points="60,12.2 60.1,12.5 60.9,11.7 "/>
<polygon class="st2" points="59.7,14.9 60.6,13.8 59.3,14.8 "/>
<polygon class="st2" points="64.5,8.7 64.8,8.4 60.1,10.5 59,11.5 59.2,11.8 60.4,10.7 "/>
<polygon class="st2" points="62.5,11.2 64.7,9.8 64.7,9.5 61.9,11.3 62.6,11.5 61.1,13 61.6,13 63.1,11.4 "/>
<polygon class="st2" points="65.7,9.2 65.8,9.5 68.5,8.8 68.7,8.5 "/>
<polygon class="st2" points="64.1,13 63,13.9 63.5,13.9 64.5,13 64.2,12.8 64.9,12.2 64.9,12 63.6,13 "/>
<polygon class="st2" points="65.7,11.2 67,10.7 66.6,10.5 68.6,9.7 68.7,9.5 65.6,10.6 66.3,10.7 65.1,11.2 "/>
<polygon class="st2" points="71.3,8.7 70,8.8 70.2,9.1 71.7,8.8 71.5,8.4 73.6,8.2 73.9,8 71,8.2 "/>
<polygon class="st2" points="67.4,11.4 67.8,11.5 69.4,11 69.4,10.8 "/>
<g>
	<path class="st2" d="M80.3,12.1c-0.8,0.1-1.4,0.4-1.7,0.7c0.6,0.5,0.5,1.3,0.2,1.6c1.9,1,4.5-1.1,5.6-0.9l0.6-0.5
		c-1.4-0.7-2.5-0.9-3.5-0.9l-0.2,0.2l0.2,0.2c0.7,0,1.3,0.2,1.5,0.2c-1.6,0.2-0.8,0.1-0.6,0.2c0.2,0.1,1,0.1,1,0.2
		c-0.6,0-1.7-0.1-2.2,0.2c-0.2,0.1,2,0,0.7,0.2l-2,0.2l1.8,0.1c-0.2,0-2.4,0.1-2.5,0c-0.1-0.1,0.3-0.2,0.3-0.3c0-0.1-0.4,0-0.4-0.2
		c0.2-0.1,1.3-0.4,2.1-0.6c0.2,0-1.5,0-1.3,0L80.3,12.1z"/>
	<path class="st2" d="M79.8,20.5l3.8,0.5c0.1,0,0.1,0.1,0.1,0.3c0,0.3,0.2,0.2,0.2,0.1c0,0,0.2-0.3-0.1-0.5
		c-0.1-0.1-0.2-0.1-0.2-0.1l-3.9-0.5c0,0-0.1,0-0.1,0.1C79.7,20.5,79.8,20.5,79.8,20.5"/>
	<path class="st2" d="M83.2,22.4c0,0.1,0,0.2-0.3,0.3c-0.2,0.1,0,0.2,0.1,0.2c0,0,0.3-0.1,0.4-0.4C83.6,22.4,83.3,22.3,83.2,22.4"/>
	<path class="st2" d="M60.3,25H53h0h-1.5c-0.1,0-0.2,0.1-0.2,0.2c0,0.1,0.1,0.2,0.2,0.2h1.4l0.2,0.8c0,0.1,0.1,0.1,0.1,0.1
		c0,0,0,0,0,0c0.1,0,0.1-0.1,0.1-0.2l-0.1-0.7h5.2l0.2,0.8c0,0.1,0.1,0.1,0.1,0.1c0,0,0,0,0,0c0.1,0,0.1-0.1,0.1-0.2l-0.2-0.7h1.7
		c0.1,0,0.2-0.1,0.2-0.2C60.5,25.1,60.4,25,60.3,25"/>
	<path class="st2" d="M50.4,25H38.5c-0.1,0-0.2,0.1-0.2,0.2c0,0.1,0.1,0.2,0.2,0.2h2.8L41.1,26c0,0.1,0,0.2,0.1,0.2c0,0,0,0,0,0
		c0.1,0,0.1,0,0.1-0.1l0.2-0.8h5.6l0,0.8c0,0.1,0.1,0.2,0.2,0.2h0c0.1,0,0.2-0.1,0.2-0.2l0-0.8h3c0.1,0,0.2-0.1,0.2-0.2
		C50.6,25.1,50.5,25,50.4,25"/>
	<path class="st2" d="M10.7,25H10c-0.1,0-0.2,0.1-0.2,0.2c0,0.1,0.1,0.2,0.2,0.2h0.7c0.1,0,0.2-0.1,0.2-0.2
		C10.9,25.1,10.8,25,10.7,25"/>
	<path class="st2" d="M26.1,25H17c-0.1,0-0.2,0.1-0.2,0.2c0,0.1,0.1,0.2,0.2,0.2h1L17.4,26c-0.1,0.1-0.1,0.2,0,0.2c0,0,0.1,0,0.1,0
		c0,0,0.1,0,0.1,0l0.8-0.8c0,0,0,0,0,0h4.7L22.6,26c-0.1,0.1,0,0.2,0,0.2c0,0,0.1,0,0.1,0c0,0,0.1,0,0.1-0.1l0.6-0.8h2.7
		c0.1,0,0.2-0.1,0.2-0.2C26.3,25.1,26.2,25,26.1,25"/>
	<path class="st2" d="M15.8,25h-4.2c-0.1,0-0.2,0.1-0.2,0.2c0,0.1,0.1,0.2,0.2,0.2h0.9L11.9,26c-0.1,0.1-0.1,0.2,0,0.2
		c0,0,0.1,0,0.1,0c0,0,0.1,0,0.1,0l0.8-0.8c0,0,0,0,0,0h2.8c0.1,0,0.2-0.1,0.2-0.2C15.9,25.1,15.9,25,15.8,25"/>
	<path class="st2" d="M9.3,25H6.5c-0.1,0-0.2,0.1-0.2,0.2c0,0.1,0.1,0.2,0.2,0.2h1L6.8,26c-0.1,0.1-0.1,0.2,0,0.2c0,0,0.1,0,0.1,0
		c0,0,0.1,0,0.1,0L8,25.4c0,0,0,0,0,0h1.3c0.1,0,0.2-0.1,0.2-0.2C9.5,25.1,9.4,25,9.3,25"/>
	<path class="st2" d="M85.5,25.3h1.6l0.9,0.9c0,0,0.1,0,0.1,0c0,0,0.1,0,0.1,0c0.1-0.1,0.1-0.2,0-0.2l-0.7-0.7h4.8l1,0.9
		c0,0,0.1,0,0.1,0c0,0,0.1,0,0.1-0.1c0.1-0.1,0-0.2,0-0.2l-0.8-0.7h0.6c0.1,0,0.2-0.1,0.2-0.2c0-0.1-0.1-0.2-0.2-0.2h-1c0,0,0,0,0,0
		h-5.2c0,0,0,0,0,0h-1.7c-0.1,0-0.2,0.1-0.2,0.2C85.4,25.2,85.4,25.3,85.5,25.3"/>
	<path class="st2" d="M78.8,25.3h2.7l0.7,0.9c0,0,0.1,0.1,0.1,0.1c0,0,0.1,0,0.1,0c0.1-0.1,0.1-0.2,0-0.2l-0.6-0.7h2.6
		c0.1,0,0.2-0.1,0.2-0.2c0-0.1-0.1-0.2-0.2-0.2h-2.9c0,0,0,0,0,0h-2.8c-0.1,0-0.2,0.1-0.2,0.2C78.7,25.2,78.7,25.3,78.8,25.3"/>
	<path class="st2" d="M67.9,25.3h1.6l0.4,0.8c0,0.1,0.1,0.1,0.1,0.1c0,0,0,0,0.1,0c0.1,0,0.1-0.1,0.1-0.2l-0.3-0.7h5.3c0,0,0,0,0,0
		l0.5,0.9c0,0.1,0.1,0.1,0.1,0.1c0,0,0.1,0,0.1,0c0.1,0,0.1-0.1,0.1-0.2l-0.4-0.8H77c0.1,0,0.2-0.1,0.2-0.2c0-0.1-0.1-0.2-0.2-0.2
		h-7.3c0,0,0,0-0.1,0h-2l-0.3-0.3l26.6,0l0.1,0.4l1.8,1.6l0,0.5l-26.7,0c-0.1-0.6-0.5-1-0.5-1L67.9,25.3z M68.3,28.4l-0.6-0.8h0.9
		C68.5,27.5,68.6,28,68.3,28.4 M66.1,27.3h-0.9c0.1-0.4,0.4-0.6,0.4-0.6l2.7,0c0.2,0.2,0.2,0.6,0.2,0.6h-1.1
		C66.9,26.6,66.2,27,66.1,27.3 M65.5,28.4c-0.3-0.4-0.3-0.8-0.3-0.8h0.9c0,0,0,0.1,0.1,0.3l0.3,0.5H65.5z M65,25.2
		c0.8,0.1,1.7-0.3,1.7-0.3l1.1,1l-2.1,0L65,25.2z M64.8,26.7l-1.5-1.8c0.3,0.1,0.8,0.2,0.8,0.2l1,1.1C64.9,26.3,64.8,26.7,64.8,26.7
		 M64.6,27.7l-9-10.8c-0.1-0.7,0.2-0.9,0.2-0.9l6.4,7.2c-0.5,0.7,0.2,1.2,0.2,1.2l2.2,2.7C64.5,27.4,64.6,27.7,64.6,27.7 M36.3,27.1
		l2-2.4l23.1,0l2,2.4L36.3,27.1z M35.2,27.7c0.1-0.3,0-0.7,0-0.7s1.9-2.3,2-2.4c0.1,0,0.2-0.2,0.2-0.2c0.5-0.7,0-1.2,0-1.2
		l10.2-11.3l0,1L35.2,27.7z M34.8,26.3l0.9-1.1c0.4,0,0.7-0.2,0.7-0.2l-1.4,1.7C35,26.6,34.8,26.3,34.8,26.3 M34.2,26h-2l1-0.9
		c0,0,0.8,0.4,1.7,0.3l0,0L34.2,26z M34.6,27.6c0,0.4-0.3,0.7-0.3,0.7h-0.8c0,0,0.3-0.3,0.3-0.3c0.2-0.3,0.2-0.4,0.2-0.4h0.7V27.6z
		 M31.8,30.1c-0.5,0.6-1.4,0.6-1.4,0.6L30,31l0.2-0.5c0,0-0.1-0.6,0.5-1.2l1.8-2.2c0.2-0.3,1.1-0.4,1.2,0.3c0,0.2-0.1,0.4-0.1,0.4
		L31.8,30.1z M32,27.5l-0.6,0.7c-0.3-0.3-0.2-0.7-0.2-0.7H32z M31.3,27.2c0,0,0.1-0.5,0.2-0.6h2.7c0.1,0,0.3,0.6,0.3,0.6h-0.8
		c0,0-0.1-0.4-0.6-0.4c-0.6-0.1-0.9,0.5-0.9,0.5H31.3z M30.7,27.1l-26.2,0l1.7-1.9l0.1-0.5l26.2,0c0,0,0,0,0,0L32.2,25h-4.7
		c-0.1,0-0.2,0.1-0.2,0.2c0,0.1,0.1,0.2,0.2,0.2h0.9L28,26.1c0,0.1,0,0.2,0.1,0.2c0,0,0,0,0.1,0c0.1,0,0.1,0,0.1-0.1l0.5-0.9h3.2
		l-0.8,0.7C30.9,26.5,30.8,26.8,30.7,27.1 M9.6,21.4h10.5c-3.1,0.6-5.3,1-6,1.2c-1.4,0.3-1.8,1.1-1.2,1.5c-3.5,0-6.1,0-6.1,0
		L9.6,21.4z M37.7,19.3l-0.5,0.6c-5.7,0.9-18.1,2.8-22.8,3.7c-0.5,0.1-0.6-0.3-0.2-0.4C20.1,22.1,32.4,20.2,37.7,19.3 M32.3,24.1
		c-1.9,0-9.1,0-15.3,0c6.8-0.7,12.9-1.4,18.2-2.1l-0.6,0.7C32.7,23,32.3,23.6,32.3,24.1 M35,23.2c1.1-0.1,2,0.2,2,0.6
		c0,0.4-0.8,0.8-1.9,0.9c-1.1,0.1-2-0.2-2-0.6C33,23.7,33.9,23.3,35,23.2 M55.3,16.5l-3.1-3.6l0-1l3.4,3.8
		C55.3,15.9,55.3,16.5,55.3,16.5 M46,15.5l2-2.4c2.3,0.6,3.9,0,3.9,0l2.1,2.7c-0.5,0.1-1.3,0.2-2.4,0.4L46,15.5z M55.3,17.4
		L55.3,17.4l0.2,0.2l-10.2-1.2l0.2-0.2L55.3,17.4z M44.1,17.8l0.2-0.2l12.3,1.4l0.2,0.2L44.1,17.8z M50,19.8l5.3,0.6l-9.3,0
		C47.3,20.3,48.7,20,50,19.8 M43.3,18.9l0.4-0.5l1.7-0.3l1.6,0.2L43.3,18.9z M58.7,21.4l2.2,2.6l-22.1,0l2.5-2.9c0.1,0,0.1,0,0.2,0
		l-0.3,0.3H58.7z M40,17.7l7.4-7.3l0.3,0.1c0,0,0,0.8,2.2,0.8c2.2,0,2.1-0.8,2.1-0.8l0.4-0.1l6.6,6.1l-2.9-0.8L52,11.1
		c0,0-0.9,0.4-2.1,0.4c-1.1,0-1.8-0.3-2.1-0.4L37.1,23c0,0-0.5-0.4-1.6-0.4L40,17.7z M25.7,15.8c-0.1,0-0.2,0.1-0.3,0.2
		c-0.1,0.2-0.2,0.5-0.4,0.6c-1.8-0.6-4.7-1.5-4.7-1.5l0.5-0.1l-0.3-0.2c0,0,2.9,0.6,4.2,1c-1.5-0.6-3.9-1.3-3.9-1.3L20.4,14
		c0.5,0,5-0.4,5-0.4l0.1,0.3c0,0,0.1,0.2,0.3,0.2L41,15.7l-0.2,0.2L26,14.2c-0.4-0.1-0.4,0.2-0.4,0.2l0,0.7c0,0.3,0.3,0.3,0.3,0.3
		l13.9,1.6l-0.2,0.2l0,0L25.7,15.8z M32.9,13.1l0.9-0.6l-4.8-1.3l1.3-0.9L25,9.6l1-0.8l-5.1-0.4l0.9-0.6l-5-0.6l5-0.8l6.2-0.2
		l7.5,1.3l5.4,2.6l1.3,1.2l-0.6,0.7l-1.3,0.7l0,0.6l0.8,0.8l0.4,0.7l-2.8-0.3l-0.9-0.5l0.6,0.5l-2.1-0.2L32.9,13.1z M50.2,7.7
		c0.1,0.1,0.1,0.1,0.1,0.3l0.1,1.7l-0.1,0L50.2,7.7z M49.4,9.7l0-1.7c0-0.2,0.2-0.4,0.5-0.4c0,0,0.1,0,0.1,0l0,2.1
		C49.9,9.7,49.6,9.7,49.4,9.7 M48.8,10c0.2,0,0.6-0.1,1.1-0.1c0.6,0,0.9,0.1,1.1,0.1l-1.1,0.3l1.5,0.5c-0.3,0.2-0.9,0.3-1.5,0.3
		c-0.5,0-1.2-0.1-1.5-0.2c0,0,1.5-0.5,1.5-0.5C49.9,10.3,48.8,10,48.8,10 M45.2,8.4c0-1,2-1.9,4.5-1.9c2.5,0,4.5,0.9,4.5,1.9
		c0,0.7-1,1.3-2.5,1.6c-0.4-0.2-0.7-0.2-1-0.3l-0.1-1.4c0.8,0.1,1.7,0.4,1.7,1c0.7-0.2,1.1-0.6,1.1-0.9c0-0.7-1.6-1.4-3.6-1.4
		c-2,0-3.6,0.7-3.6,1.4c0,0.4,0.4,0.7,1.1,0.9c0.1-0.6,1-0.9,1.9-1l-0.1,1.4c-0.4,0-0.8,0.1-1.1,0.3C46.4,9.8,45.2,9.1,45.2,8.4
		 M49.2,4c0.1-0.3,0.5-0.4,0.8-0.4L50,6.1c-0.7,0-1.1,0.1-1.1,0.1L49.2,4z M50.5,4l0.3,2.2l-0.3,0l-0.2-2.5
		C50.4,3.8,50.5,3.9,50.5,4 M58.3,12.1l-0.6-0.7l1.3-1.2l5.4-2.6L72,6.3l6.2,0.2l5,0.8l-5,0.6l0.9,0.6L74,8.8l1,0.8l-5.2,0.7
		l1.3,0.9l-4.8,1.3l0.9,0.6l-2.7,1.2c-0.4,0-0.7,0.1-0.7,0.1l0.1,0.2c-0.1-0.1-0.3,0-0.3,0l-0.2,0c-0.6,0.1-1.2,0.1-1.9,0.2l0.7-0.6
		l-1,0.6c-0.8,0.1-1.7,0.2-2.6,0.3l0,0l0.1-0.7l1-0.9l0-0.6L58.3,12.1z M66.6,14.5c0,0,0.3,0.3,0.4,0.6c-0.3,0-0.8,0.1-0.8,0.1
		s-0.2-0.5-0.6-0.7C65.6,14.5,65.9,14.3,66.6,14.5 M67.7,14.3L78.3,13c0.1,0.1,0.3,0.4,0.3,0.4l-11.1,1.8c-0.2-0.5-0.5-0.7-0.5-0.7
		C67.2,14.3,67.7,14.3,67.7,14.3 M78.6,13.5c0,0,0,0.2,0,0.3l-9.8,1.8c0,0-0.8,0.1-1.1,0.1c0,0,0-0.2-0.1-0.4L78.6,13.5z M67.1,15.8
		c-0.1,0.1-0.8,0.3-0.8,0.3l0-0.4l0.8-0.2C67.1,15.5,67.1,15.7,67.1,15.8 M65.9,16.1c-0.2,0.2-0.4,0.2-0.4,0.2l-0.4-0.4l0.8-0.2
		C65.9,15.8,65.9,16,65.9,16.1 M64.6,14.8l0.4-0.2c0,0,0.1,0,0.1,0c0,0,0.3,0.1,0.6,0.6l0,0.1c0,0-0.4-0.1-0.9,0.1
		C64.9,15.5,64.8,15.1,64.6,14.8 M64.5,15.6c0,0-1.8,0.3-4.6,0.7l-0.5-0.5c3.3-0.5,5-0.7,5-0.7C64.4,15.2,64.5,15.4,64.5,15.6
		 M79.1,20.1c0.1,0,0.1-0.1,0.1-0.1l0-0.1l4.6,0.5c0.3,0,0.4,0.2,0.4,0.2c0.3,0.4,0.3,1.1,0,1.7c-0.3,0.7-0.9,0.8-0.9,0.8l-4-0.4
		c0,0,0.3-0.6,0.3-0.6l3.1,0.4c0.2,0,0.4-0.2,0.2-0.3l-3.3-0.4c0,0-0.2,0-0.2,0.2L79,22.7l-0.3,0c0,0,0.2-0.3,0.3-0.7
		c0,0,0.1-0.2-0.2-0.2l-16-1.8l-0.2-0.3l16.2,1.8c0.3,0,0.3-0.2,0.3-0.2l0.1-0.8c0-0.2-0.2-0.2-0.2-0.2l-17.5-2L61.3,18L79.1,20.1z
		 M62.7,22.9l-6.1-6.7l2.9,0.8l4.8,5.6h-0.3C63,22.5,62.7,22.9,62.7,22.9 M64.8,23.1c1.1,0.1,1.9,0.4,1.9,0.8c0,0.4-0.9,0.6-1.9,0.6
		c-1.1-0.1-1.9-0.4-1.9-0.8C62.9,23.3,63.8,23.1,64.8,23.1 M84.6,22.7c0.3-0.5,0.4-0.9,0.4-1.3l5.6,0l3,2.6l-26.3,0
		c0.2-1.2-2.1-1.6-2.1-1.6l-0.9-1.1l18.9,2.1C83.2,23.5,84,23.8,84.6,22.7 M69.1,28.3h28.2L97,26.6l-1.9-2l-0.2-0.7L91,20.5h-6.3
		c0-0.1-0.3-0.5-1-0.6l-20.1-2.3l0.6-0.1c0,0,1.2-0.1,2-0.3c0.7-0.1,1.1-0.4,1.1-0.4c0.4,0.1,0.8,0,0.8,0s10.2-2.2,10.4-2.2
		c0.2-0.1,0.4-0.3,0.4-0.3c0.4-0.7,0-1.2-0.1-1.4c-0.2-0.2-0.4-0.2-0.4-0.2s-10,1.1-10.6,1.2c-0.6,0.1-0.9,0.3-0.9,0.3
		c-0.2-0.1-0.4-0.1-0.6-0.1l2.3-1.1l-0.7-0.4l4.5-1.3l-1-0.8l5.1-0.6l-1-0.8l5.7-0.3L80,8.2l3.8-0.4L86.4,8l3.1-0.4L79.1,5.8
		l-0.7,0.5l0.1-0.5l-6.5-0.2l-7.2,1.1l-0.4,0.5l-0.6-0.3l-5.5,2.8l-1.5,1.6l0.7,1.5l1,0.5l-0.8,0.8l-0.1,0.2l-3.3-3.1
		c0.1-0.1,0.2-0.5,0.2-0.5V8.3c-0.1-1.7-3.2-2.1-3.2-2.1L51,3.8c-0.1-0.7-1.1-0.7-1.1-0.7c-1.2,0-1.2,0.7-1.2,0.7l-0.3,2.5
		c-3.6,0.5-3.4,2.1-3.4,2.1l0,2.1c0,0.5,0.5,0.8,0.5,0.8l-3.1,3l-0.1-0.3l-0.8-0.8l1-0.5l0.7-1.5l-1.5-1.6l-5.5-2.8l-0.6,0.3
		l-0.4-0.5l-7.2-1.1l-6.5,0.2l0.1,0.5l-0.7-0.5L10.6,7.6L13.7,8l2.5-0.2L20,8.2L19,8.9l5.7,0.3l-1,0.8l5.1,0.6l-1,0.8l4.5,1.3
		l-0.7,0.4l2.3,1.1l-8.6-1c0,0-4.3,0.4-7.5,0.6l-0.4,0.6l0.6,0.4c0,0,4.5,1.3,6.8,2.4l12.8,1.3c-4.4,0.7-8.5,1.4-12.1,2.1H9.2
		l-3.6,3.4l-0.4,0.9l-2.1,2.4l-0.3,1.2h27.9c0.1,0.3,0.3,0.4,0.3,0.4l-0.6,0.7c-0.5,0.7-0.4,1.1-0.4,1.1l-0.3,0.8l0.8-0.4
		c1,0.1,1.6-0.7,1.6-0.7L33,29h1.7l0.6-0.7h29.2l0.6,0.7H67l2.1,3.1l0.2-0.8l-2.6-3.4c0,0-0.2-0.3-0.1-0.4c0.2-0.1,0.3,0,0.3,0
		l2.6,3.3l0.3-0.9l-1-1.1C68.9,28.6,69,28.4,69.1,28.3"/>
</g>
</svg>
